<?xml version="1.0" encoding="UTF-8" standalone="no"?>
<!--Generated by Ulead PhotoImpact-->

<svg
   xmlns:dc="http://purl.org/dc/elements/1.1/"
   xmlns:cc="http://creativecommons.org/ns#"
   xmlns:rdf="http://www.w3.org/1999/02/22-rdf-syntax-ns#"
   xmlns:svg="http://www.w3.org/2000/svg"
   xmlns="http://www.w3.org/2000/svg"
   xmlns:xlink="http://www.w3.org/1999/xlink"
   xmlns:sodipodi="http://sodipodi.sourceforge.net/DTD/sodipodi-0.dtd"
   xmlns:inkscape="http://www.inkscape.org/namespaces/inkscape"
   width="1024px"
   height="1024px"
   version="1.1"
   id="svg827"
   sodipodi:docname="schild.svg"
   inkscape:version="0.92.2 (5c3e80d, 2017-08-06)">
  <metadata
     id="metadata833">
    <rdf:RDF>
      <cc:Work
         rdf:about="">
        <dc:format>image/svg+xml</dc:format>
        <dc:type
           rdf:resource="http://purl.org/dc/dcmitype/StillImage" />
      </cc:Work>
    </rdf:RDF>
  </metadata>
  <defs
     id="defs831">
    <linearGradient
       inkscape:collect="always"
       id="linearGradient882">
      <stop
         style="stop-color:#ffffff;stop-opacity:1;"
         offset="0"
         id="stop878" />
      <stop
         style="stop-color:#ffffff;stop-opacity:0;"
         offset="1"
         id="stop880" />
    </linearGradient>
    <linearGradient
       inkscape:collect="always"
       xlink:href="#linearGradient882"
       id="linearGradient884"
       x1="408.1156"
       y1="-315.76508"
       x2="799.66656"
       y2="71.413437"
       gradientUnits="userSpaceOnUse" />
  </defs>
  <sodipodi:namedview
     pagecolor="#ffffff"
     bordercolor="#666666"
     borderopacity="1"
     objecttolerance="10"
     gridtolerance="10"
     guidetolerance="10"
     inkscape:pageopacity="0"
     inkscape:pageshadow="2"
     inkscape:window-width="1920"
     inkscape:window-height="1017"
     id="namedview829"
     showgrid="false"
     inkscape:zoom="0.84667969"
     inkscape:cx="436.02146"
     inkscape:cy="350.81477"
     inkscape:window-x="-8"
     inkscape:window-y="-8"
     inkscape:window-maximized="1"
     inkscape:current-layer="svg827"
     inkscape:snap-bbox="false"
     inkscape:snap-bbox-midpoints="true"
     inkscape:snap-object-midpoints="true" />
  <rect
     style="display:inline;opacity:1;fill:#000000;fill-opacity:1;fill-rule:evenodd;stroke:#333333;stroke-width:0.80000001;stroke-linecap:butt;stroke-linejoin:round;stroke-miterlimit:4;stroke-dasharray:none;stroke-dashoffset:0;stroke-opacity:1"
     id="rect846"
     width="715.78113"
     height="715.78113"
     x="364.63208"
     y="-356.53452"
     rx="25"
     ry="25"
     transform="rotate(45)"
     inkscape:label="schwarz"
     sodipodi:insensitive="true" />
  <rect
     transform="rotate(45)"
     ry="10"
     rx="10"
     y="-334.44528"
     x="386.72134"
     height="671.60266"
     width="671.60266"
     id="rect850"
     style="display:inline;opacity:1;fill:#f2aa05;fill-opacity:0.9935484;fill-rule:evenodd;stroke:none;stroke-width:0.80000001;stroke-linecap:butt;stroke-linejoin:round;stroke-miterlimit:4;stroke-dasharray:none;stroke-dashoffset:0;stroke-opacity:1"
     inkscape:label="orange"
     sodipodi:insensitive="true" />
  <path
     style="display:inline;opacity:1;fill:#000000;fill-opacity:1;fill-rule:evenodd;stroke:none;stroke-width:0;stroke-linecap:butt;stroke-linejoin:round;stroke-miterlimit:4;stroke-dasharray:none;stroke-dashoffset:0;stroke-opacity:1"
     d="m 287.96309,324.56034 c 0.56071,-7.78794 6.90128,-4.08407 8.53362,-0.80981 8.65514,11.21955 16.48721,18.01977 24.68313,36.57136 6.88556,-0.42134 12.69554,-2.01935 21.15407,2.04514 11.52587,-13.4843 15.94109,-28.33757 24.62975,-42.25801 3.5345,-8.11449 9.83935,-0.44663 13.17797,4.84534 8.3362,21.88808 17.97973,41.65031 9.09419,63.44939 7.37301,6.90718 16.27796,11.37685 24.43892,16.70815 7.33767,4.13997 16.10645,4.92612 24.19441,6.8152 8.43244,1.12537 8.84865,1.04045 15.3456,5.60273 25.46499,1.4531 49.66297,4.11165 75.91575,2.4136 13.25038,-2.01502 22.6551,-4.55098 38.35194,-8.02302 12.48897,-2.76249 33.04485,-4.16949 44.18015,-3.00123 10.51223,1.10288 14.9481,1.59618 23.8322,2.49243 9.43456,0.95177 19.72064,5.72122 27.11004,10.64391 14.7209,6.68092 28.93595,11.08549 44.6753,22.34944 8.27043,5.65257 15.37496,13.67957 22.3204,25.06486 6.42137,13.08049 10.62827,27.2836 11.931,44.5278 1.57578,13.48432 1.51732,30.70149 1.68267,43.35921 0.1876,14.36013 1.57864,24.96204 2.53339,41.13459 0.65829,11.15061 0.0325,17.34121 0.99746,26.40901 1.35883,12.76925 2.37103,17.80823 4.32382,23.15473 -11.5184,0.0189 -18.82719,-1.70143 -23.25013,-8.36805 -1.97735,-2.98044 -4.75588,-5.62041 -6.0565,-7.23197 -0.78159,1.97445 -0.73361,3.17687 0.41194,6.52784 1.32495,3.93725 2.23133,6.78371 4.72333,10.33194 2.9279,3.348 1.38121,6.54381 0.54863,9.51575 l -7.30775,27.0379 -8.58904,39.41408 c -3.26387,2.12994 -2.23257,5.22394 -6.5644,5.73791 -10.20409,1.21072 -20.51186,1.80525 -28.30006,-4.65015 -1.81204,-4.18193 5.36609,-14.95516 7.00544,-15.45049 2.75536,-0.61441 3.89497,0.96096 8.19745,2.7061 3.11925,-15.89454 8.99135,-25.82967 9.52327,-48.19252 0.13853,-4.84243 -0.74528,-7.129 -1.33717,-10.14539 -12.70073,-17.05287 -24.77875,-34.75506 -34.17892,-54.72018 -2.71309,4.18513 -3.82728,6.9376 -4.92409,11.11965 -2.0081,7.4031 -1.30803,14.23182 -0.45413,21.28096 5.31061,14.03526 8.94743,19.21596 12.94712,25.573 1.92658,2.06797 1.4754,3.91859 0.97536,5.49865 -5.15527,15.11635 -5.92986,19.45281 -14.21091,43.9465 l -3.3837,33.23492 c -0.29589,4.85642 -7.54475,5.49921 -11.64732,5.57197 -3.52585,0.0625 -8.99149,0.37957 -13.5116,-0.0143 -5.3198,-0.46351 -9.7162,-1.39743 -9.7162,-1.39743 -2.80107,-0.97454 -5.03304,-3.15227 -6.05671,-4.88566 -0.52666,-3.87842 0.90315,-5.8903 2.23056,-8.95225 2.83951,-3.10959 2.05303,-3.70176 5.48545,-3.99081 l 9.44262,1.83074 4.46585,-6.43533 c 4.47239,-18.50091 4.8296,-39.24645 3.19487,-61.07851 -3.53801,-14.43879 -13.61823,-27.36784 -24.27228,-40.16447 -12.22078,-21.31432 -24.64629,-37.91947 -30.2344,-66.8854 -1.84411,-13.37672 -2.64809,-25.74063 -0.65441,-32.27734 -11.65742,1.20421 -27.44787,14.76645 -34.02244,20.2112 -18.33763,15.18634 -30.27087,19.9471 -37.20414,23.95581 -10.80632,4.2611 -21.61263,5.83216 -32.41895,4.804 -0.9235,9.36418 -2.16898,7.93118 -2.76773,20.61226 -0.0969,2.05322 0.433,11.59245 0.33592,14.04623 -1.20657,30.49596 -3.37417,65.82714 5.8037,94.14561 0.0379,12.25395 -0.40958,23.47638 -1.94106,32.39536 -0.90875,1.9912 -2.55848,2.35016 -3.52872,3.40179 -2.87856,3.12006 -4.83005,5.90492 -13.74236,11.81863 -16.88395,1.43775 -29.82893,2.65578 -42.28843,-1.56669 -3.13326,-0.51516 -1.46432,-9.38122 2.72397,-12.64407 -2.91493,0.17883 -3.28144,-1.97517 -3.84697,-3.75418 2.52776,-6.5197 4.66454,-9.2693 7.9796,-10.67153 6.35631,-2.59742 11.64253,4.55863 17.64899,-10.63372 1.69907,-15.15042 -1.02948,-30.8543 -2.19006,-46.36217 -10.02955,-48.69397 -12.06395,-43.42425 -16.08689,-51.57631 -20.39888,-36.89447 -47.42836,-70.6116 -74.64738,-105.64603 -13.35324,-17.18737 -25.97839,-34.96253 -38.55644,-52.36132 -2.28067,0.15351 -4.67447,-0.21241 -6.98222,0.0663 -6.76864,0.26495 -13.48724,1.77195 -18.85633,-2.17619 -1.13578,-1.80321 -1.76171,-3.41501 0.0813,-8.60306 1.20144,-2.45307 3.46643,-4.64025 5.82941,-6.80293 -2.64622,-1.37955 -6.04059,-1.29788 -8.4611,-0.25046 -0.63167,0.12029 -0.41687,1.43226 -0.43892,2.73468 0.1127,1.4281 -1.02376,1.09144 -1.42,0.21395 -1.12098,-1.96978 -0.64865,-2.76436 -1.47569,-2.78445 -1.14457,-0.0278 -1.70316,-0.28177 -4.18666,0.0986 -5.83918,-7.02045 -11.20561,-17.6147 -5.75648,-23.78951 l 10.1005,-9.26844 c 0.25776,-4.45064 -1.46589,-7.91517 -0.463,-12.58754 0.97193,-4.52811 4.38683,-7.56663 8.70503,-11.87965 -1.87723,-1.03814 -3.54684,-2.3716 -4.04283,-4.91057 -1.16872,-24.22872 -0.95932,-31.65386 -1.49158,-48.21815 z"
     id="rect891"
     inkscape:connector-curvature="0"
     sodipodi:nodetypes="cccccccccccsssccccssscsccccccsccccccccccccssccccccccccsccssccsccccccccsccccccccscccscccc"
     inkscape:label="dingo" />
  <rect
     inkscape:label="verlauf"
     style="display:inline;opacity:0.68488746;fill:url(#linearGradient884);fill-opacity:1;fill-rule:evenodd;stroke:none;stroke-width:0.80000001;stroke-linecap:butt;stroke-linejoin:round;stroke-miterlimit:4;stroke-dasharray:none;stroke-dashoffset:0;stroke-opacity:1"
     id="rect852"
     width="646.53033"
     height="646.53033"
     x="399.25748"
     y="-321.90912"
     rx="20"
     ry="20"
     transform="rotate(45)"
     sodipodi:insensitive="true" />
</svg>
